<svg width="72" height="78" viewBox="0 0 72 78" fill="none" xmlns="http://www.w3.org/2000/svg">
<g clip-path="url(#clip0_687_192)">
<path d="M8.72398 77.9999C7.47913 77.9999 6.20743 77.7905 4.92567 77.3352C4.57336 77.189 4.31835 77.0428 4.21769 76.983C3.5399 76.6241 -1.7784 73.4273 0.613996 62.451C3.64392 48.8595 13.5222 36.1619 29.2925 25.5247C29.2858 19.7757 29.2825 8.1448 29.2825 6.45002C29.2825 5.86183 29.7656 5.3833 30.3596 5.3833C30.9535 5.3833 31.4333 5.86183 31.4333 6.45002C31.4333 11.3649 31.44 19.1709 31.44 24.109C32.0238 23.7335 32.6144 23.3646 33.2116 22.9925C46.7775 14.6348 59.5615 10.5541 59.689 10.5142C60.2561 10.3347 60.8601 10.6471 61.0379 11.2054C61.2191 11.767 60.907 12.3652 60.34 12.5446C60.0749 12.6277 45.8212 17.2368 31.44 26.721C31.44 27.8874 31.44 28.6118 31.4433 28.6849C31.5205 33.3107 31.4601 57.0377 22.3838 69.6722C19.3874 73.8427 14.3107 77.9899 8.71727 77.9932M29.2959 28.1798C17.4916 36.3813 6.06651 47.8892 2.72118 62.9063C0.60393 72.6065 5.03976 74.9991 5.22766 75.0988L5.32497 75.1553C5.3451 75.1653 5.50616 75.2649 5.71755 75.3513C11.5492 77.4349 17.4077 72.9354 20.6356 68.4426C29.5073 56.0973 29.3462 31.493 29.2992 28.7281C29.2992 28.6982 29.2992 28.5088 29.2992 28.1865" fill="#DD6326"/>
<path d="M57.4274 72.2309C53.1861 72.2309 49.4784 70.2935 47.4015 68.4126C40.4055 62.0688 41.0296 47.8957 41.0598 47.2943V2.15314C41.0598 1.56495 41.5396 1.08643 42.1335 1.08643C42.7274 1.08643 43.2106 1.56495 43.2106 2.15314V47.3474C43.2039 47.5368 42.6066 61.1749 48.8543 66.8408C51.0924 68.8712 55.186 70.6225 59.2829 69.9512C63.4906 69.2633 67.0875 66.2825 69.9832 61.0818C70.2685 60.5667 70.9228 60.3773 71.4428 60.6631C71.9629 60.9489 72.1542 61.5936 71.869 62.112C68.6444 67.9108 64.5274 71.2605 59.6352 72.0581C58.8903 72.181 58.1521 72.2342 57.4307 72.2342" fill="#DD6326"/>
<path d="M67.4602 10.0525C67.4602 11.1824 66.5375 12.0962 65.4 12.0962C64.2625 12.0962 63.3364 11.1824 63.3364 10.0525C63.3364 8.92264 64.2592 8.00879 65.4 8.00879C66.5408 8.00879 67.4602 8.92264 67.4602 10.0525Z" fill="white"/>
<path d="M32.131 2.04371C32.131 3.17357 31.2083 4.08742 30.0675 4.08742C28.9266 4.08742 28.0039 3.17357 28.0039 2.04371C28.0039 0.913855 28.9266 0 30.0675 0C31.2083 0 32.131 0.913855 32.131 2.04371Z" fill="white"/>
</g>
<defs>
<clipPath id="clip0_687_192">
<rect width="72" height="78" fill="white"/>
</clipPath>
</defs>
</svg>
